<svg width="199" height="31" viewBox="0 0 199 31" fill="none" xmlns="http://www.w3.org/2000/svg">
<path d="M13.3402 0.90909H19.4197V21.1932C19.4197 23.0682 18.9983 24.697 18.1555 26.0795C17.3222 27.4621 16.1622 28.5275 14.6754 29.2756C13.1887 30.0237 11.4605 30.3977 9.49077 30.3977C7.73887 30.3977 6.14796 30.09 4.71804 29.4744C3.29759 28.8494 2.17069 27.9025 1.33736 26.6335C0.504025 25.3551 0.0920928 23.75 0.101562 21.8182H6.22372C6.24266 22.5852 6.39891 23.2434 6.69247 23.7926C6.9955 24.3324 7.40743 24.7491 7.92827 25.0426C8.45857 25.3267 9.08357 25.4688 9.80327 25.4688C10.5608 25.4688 11.2 25.3078 11.7209 24.9858C12.2512 24.6544 12.6536 24.1714 12.9283 23.5369C13.2029 22.9025 13.3402 22.1212 13.3402 21.1932V0.90909ZM53.2379 15.4545C53.2379 18.6269 52.6366 21.3258 51.4339 23.5511C50.2408 25.7765 48.612 27.4763 46.5476 28.6506C44.4927 29.8153 42.1821 30.3977 39.6158 30.3977C37.0305 30.3977 34.7105 29.8106 32.6555 28.6364C30.6006 27.4621 28.9766 25.7623 27.7834 23.5369C26.5902 21.3116 25.9936 18.6174 25.9936 15.4545C25.9936 12.2822 26.5902 9.58333 27.7834 7.35795C28.9766 5.13258 30.6006 3.4375 32.6555 2.27273C34.7105 1.09848 37.0305 0.511363 39.6158 0.511363C42.1821 0.511363 44.4927 1.09848 46.5476 2.27273C48.612 3.4375 50.2408 5.13258 51.4339 7.35795C52.6366 9.58333 53.2379 12.2822 53.2379 15.4545ZM47.0021 15.4545C47.0021 13.3996 46.6944 11.6667 46.0788 10.2557C45.4728 8.8447 44.6158 7.77462 43.5078 7.04545C42.3999 6.31629 41.1025 5.9517 39.6158 5.9517C38.129 5.9517 36.8317 6.31629 35.7237 7.04545C34.6158 7.77462 33.754 8.8447 33.1385 10.2557C32.5324 11.6667 32.2294 13.3996 32.2294 15.4545C32.2294 17.5095 32.5324 19.2424 33.1385 20.6534C33.754 22.0644 34.6158 23.1345 35.7237 23.8636C36.8317 24.5928 38.129 24.9574 39.6158 24.9574C41.1025 24.9574 42.3999 24.5928 43.5078 23.8636C44.6158 23.1345 45.4728 22.0644 46.0788 20.6534C46.6944 19.2424 47.0021 17.5095 47.0021 15.4545ZM59.794 30V0.90909H71.4418C73.5819 0.90909 75.367 1.22633 76.7969 1.8608C78.2268 2.49527 79.3016 3.37595 80.0213 4.50284C80.741 5.62027 81.1009 6.90814 81.1009 8.36648C81.1009 9.50284 80.8736 10.5019 80.419 11.3636C79.9645 12.2159 79.3395 12.9167 78.544 13.4659C77.758 14.0057 76.8584 14.3892 75.8452 14.6165V14.9006C76.9531 14.9479 77.9901 15.2604 78.956 15.8381C79.9313 16.4157 80.7221 17.2254 81.3281 18.267C81.9342 19.2992 82.2372 20.5303 82.2372 21.9602C82.2372 23.5038 81.8537 24.8816 81.0866 26.0938C80.3291 27.2964 79.2069 28.2481 77.7202 28.9489C76.2334 29.6496 74.401 30 72.223 30H59.794ZM65.9446 24.9716H70.9588C72.6728 24.9716 73.9228 24.6449 74.7088 23.9915C75.4948 23.3286 75.8878 22.4479 75.8878 21.3494C75.8878 20.5445 75.6937 19.8343 75.3054 19.2188C74.9171 18.6032 74.3632 18.1203 73.6435 17.7699C72.9332 17.4195 72.0857 17.2443 71.1009 17.2443H65.9446V24.9716ZM65.9446 13.0824H70.5043C71.3471 13.0824 72.0952 12.9356 72.7486 12.642C73.4115 12.339 73.9323 11.9129 74.3111 11.3636C74.6993 10.8144 74.8935 10.1562 74.8935 9.3892C74.8935 8.33807 74.5194 7.49053 73.7713 6.84659C73.0327 6.20265 71.9815 5.88068 70.6179 5.88068H65.9446V13.0824ZM104.021 9.27557C103.907 8.12973 103.419 7.23958 102.558 6.60511C101.696 5.97064 100.526 5.65341 99.049 5.65341C98.0452 5.65341 97.1977 5.79545 96.5064 6.07955C95.8151 6.35417 95.2848 6.73769 94.9155 7.23011C94.5556 7.72254 94.3757 8.28125 94.3757 8.90625C94.3568 9.42708 94.4657 9.88163 94.7024 10.2699C94.9486 10.6581 95.2848 10.9943 95.7109 11.2784C96.1371 11.553 96.6295 11.7945 97.1882 12.0028C97.7469 12.2017 98.3435 12.3722 98.978 12.5142L101.592 13.1392C102.861 13.4233 104.025 13.8021 105.086 14.2756C106.147 14.7491 107.065 15.3314 107.842 16.0227C108.618 16.714 109.219 17.5284 109.646 18.4659C110.081 19.4034 110.304 20.4782 110.313 21.6903C110.304 23.4706 109.849 25.0142 108.95 26.321C108.059 27.6184 106.772 28.6269 105.086 29.3466C103.41 30.0568 101.388 30.4119 99.0206 30.4119C96.6721 30.4119 94.6267 30.0521 92.8842 29.3324C91.1513 28.6127 89.7971 27.5473 88.8217 26.1364C87.8558 24.7159 87.3492 22.9593 87.3018 20.8665H93.2536C93.3198 21.8419 93.5992 22.6562 94.0916 23.3097C94.5935 23.9536 95.2611 24.4413 96.0945 24.7727C96.9373 25.0947 97.889 25.2557 98.9496 25.2557C99.9912 25.2557 100.896 25.1042 101.663 24.8011C102.439 24.4981 103.04 24.0767 103.467 23.5369C103.893 22.9972 104.106 22.3769 104.106 21.6761C104.106 21.0227 103.912 20.4735 103.523 20.0284C103.145 19.5833 102.586 19.2045 101.847 18.892C101.118 18.5795 100.223 18.2955 99.1626 18.0398L95.995 17.2443C93.5424 16.6477 91.6058 15.715 90.1854 14.446C88.7649 13.1771 88.0594 11.4678 88.0689 9.31818C88.0594 7.55682 88.5282 6.01799 89.4751 4.7017C90.4316 3.38542 91.7431 2.35795 93.4098 1.61932C95.0765 0.880681 96.9704 0.511363 99.0916 0.511363C101.251 0.511363 103.135 0.880681 104.745 1.61932C106.364 2.35795 107.624 3.38542 108.523 4.7017C109.423 6.01799 109.887 7.54261 109.915 9.27557H104.021Z" fill="#3D3D3D" fill-opacity="0.8"/>
<path d="M128.098 0.90909H134.178V21.1932C134.178 23.0682 133.756 24.697 132.913 26.0795C132.08 27.4621 130.92 28.5275 129.433 29.2756C127.946 30.0237 126.218 30.3977 124.249 30.3977C122.497 30.3977 120.906 30.09 119.476 29.4744C118.055 28.8494 116.929 27.9025 116.095 26.6335C115.262 25.3551 114.85 23.75 114.859 21.8182H120.982C121 22.5852 121.157 23.2434 121.45 23.7926C121.753 24.3324 122.165 24.7491 122.686 25.0426C123.216 25.3267 123.841 25.4688 124.561 25.4688C125.319 25.4688 125.958 25.3078 126.479 24.9858C127.009 24.6544 127.411 24.1714 127.686 23.5369C127.961 22.9025 128.098 22.1212 128.098 21.1932V0.90909ZM159.232 0.90909H165.382V19.8011C165.382 21.9223 164.875 23.7784 163.862 25.3693C162.858 26.9602 161.452 28.2008 159.643 29.0909C157.835 29.9716 155.728 30.4119 153.322 30.4119C150.908 30.4119 148.796 29.9716 146.987 29.0909C145.179 28.2008 143.772 26.9602 142.768 25.3693C141.765 23.7784 141.263 21.9223 141.263 19.8011V0.90909H147.413V19.2756C147.413 20.3835 147.655 21.3684 148.138 22.2301C148.63 23.0919 149.321 23.7689 150.212 24.2614C151.102 24.7538 152.139 25 153.322 25C154.516 25 155.553 24.7538 156.433 24.2614C157.323 23.7689 158.01 23.0919 158.493 22.2301C158.985 21.3684 159.232 20.3835 159.232 19.2756V0.90909ZM177.457 30H170.866L180.908 0.90909H188.835L198.863 30H192.272L184.985 7.55682H184.758L177.457 30ZM177.045 18.5653H192.613V23.3665H177.045V18.5653Z" fill="#588157"/>
</svg>
